<?xml version="1.0" encoding="UTF-8"?>
<!DOCTYPE svg PUBLIC "-//W3C//DTD SVG 1.1//EN" "http://www.w3.org/Graphics/SVG/1.1/DTD/svg11.dtd">
<svg xmlns="http://www.w3.org/2000/svg" version="1.1" width="650px" height="650px" style="shape-rendering:geometricPrecision; text-rendering:geometricPrecision; image-rendering:optimizeQuality; fill-rule:evenodd; clip-rule:evenodd" xmlns:xlink="http://www.w3.org/1999/xlink">
<g><path style="opacity:1" fill="#91DC47" d="M 77.5,29.5 C 243.876,29.0054 410.209,29.5054 576.5,31C 584.164,33.998 588.997,39.498 591,47.5C 591.667,87.1667 591.667,126.833 591,166.5C 588.389,176.112 582.222,181.945 572.5,184C 406.124,184.995 239.791,184.661 73.5,183C 65.8362,180.002 61.0029,174.502 59,166.5C 58.3333,126.833 58.3333,87.1667 59,47.5C 61.8777,38.0018 68.0444,32.0018 77.5,29.5 Z M 105.5,76.5 C 251.833,76.5 398.167,76.5 544.5,76.5C 544.5,96.8333 544.5,117.167 544.5,137.5C 398.167,137.5 251.833,137.5 105.5,137.5C 105.5,117.167 105.5,96.8333 105.5,76.5 Z"/></g>
<g><path style="opacity:1" fill="#5881d8" d="M 79.5,249.5 C 195.877,249.008 312.21,249.508 428.5,251C 437.952,255.067 443.118,262.234 444,272.5C 444.667,308.833 444.667,345.167 444,381.5C 442.97,393.199 436.803,400.699 425.5,404C 308.777,404.994 192.111,404.661 75.5,403C 66.3437,399.189 61.177,392.356 60,382.5C 59.3333,345.5 59.3333,308.5 60,271.5C 61.7923,259.88 68.2923,252.547 79.5,249.5 Z M 105.5,296.5 C 202.167,296.5 298.833,296.5 395.5,296.5C 395.5,316.833 395.5,337.167 395.5,357.5C 298.833,357.5 202.167,357.5 105.5,357.5C 105.5,337.167 105.5,316.833 105.5,296.5 Z"/></g>
<g><path style="opacity:1" fill="#8fb5fe" d="M 76.5,463.5 C 136.501,463.333 196.501,463.5 256.5,464C 265.237,466.404 271.071,471.904 274,480.5C 274.667,520.5 274.667,560.5 274,600.5C 271.397,610.103 265.231,615.936 255.5,618C 196.5,618.667 137.5,618.667 78.5,618C 68.8686,615.704 62.3686,609.871 59,600.5C 58.3333,560.833 58.3333,521.167 59,481.5C 61.6834,472.318 67.5167,466.318 76.5,463.5 Z M 105.5,510.5 C 146.167,510.5 186.833,510.5 227.5,510.5C 227.5,530.833 227.5,551.167 227.5,571.5C 186.833,571.5 146.167,571.5 105.5,571.5C 105.5,551.167 105.5,530.833 105.5,510.5 Z"/></g>
</svg>
