<?xml version="1.0" encoding="UTF-8" standalone="no"?>
<!DOCTYPE svg PUBLIC "-//W3C//DTD SVG 1.1//EN" "http://www.w3.org/Graphics/SVG/1.1/DTD/svg11.dtd">
<svg xmlns="http://www.w3.org/2000/svg" version="1.1" viewBox="0.00 0.00 200.00 200.00">
<path fill="#62b132" d="
  M 184.99 48.62
  A 7.37 7.37 0.0 0 1 177.62 55.99
  L 23.36 55.99
  A 7.37 7.37 0.0 0 1 15.99 48.62
  L 15.99 14.12
  A 7.37 7.37 0.0 0 1 23.36 6.75
  L 177.62 6.75
  A 7.37 7.37 0.0 0 1 184.99 14.12
  L 184.99 48.62
  Z
  M 30.62 39.96
  Q 30.47 40.18 30.49 40.47
  A 0.55 0.55 0.0 0 0 31.04 41.00
  L 169.75 41.00
  Q 170.25 41.00 170.25 40.50
  L 170.25 22.00
  A 0.25 0.25 0.0 0 0 170.00 21.75
  L 31.01 21.75
  Q 30.71 21.75 30.71 22.05
  L 30.77 39.47
  Q 30.77 39.74 30.62 39.96
  Z"
/>
<path fill="#5881d8" d="
  M 138.1904 118.0864
  A 7.68 7.68 0.0 0 1 130.4970 125.7530
  L 23.9172 125.5670
  A 7.68 7.68 0.0 0 1 16.2506 117.8736
  L 16.3096 84.0736
  A 7.68 7.68 0.0 0 1 24.0030 76.4070
  L 130.5828 76.5930
  A 7.68 7.68 0.0 0 1 138.2494 84.2864
  L 138.1904 118.0864
  Z
  M 123.00 91.52
  A 0.27 0.27 0.0 0 0 122.73 91.25
  L 30.83 91.25
  A 0.27 0.27 0.0 0 0 30.56 91.52
  L 30.56 110.48
  A 0.27 0.27 0.0 0 0 30.83 110.75
  L 122.73 110.75
  A 0.27 0.27 0.0 0 0 123.00 110.48
  L 123.00 91.52
  Z"
/>
<path fill="#8fb5fe" d="
  M 84.2198 186.4195
  A 7.35 7.35 0.0 0 1 76.8569 193.7567
  L 23.3170 193.6632
  A 7.35 7.35 0.0 0 1 15.9799 186.3004
  L 16.0402 151.7005
  A 7.35 7.35 0.0 0 1 23.4031 144.3633
  L 76.9430 144.4568
  A 7.35 7.35 0.0 0 1 84.2801 151.8196
  L 84.2198 186.4195
  Z
  M 69.76 159.77
  A 0.52 0.52 0.0 0 0 69.24 159.25
  L 31.02 159.25
  A 0.52 0.52 0.0 0 0 30.50 159.77
  L 30.50 178.23
  A 0.52 0.52 0.0 0 0 31.02 178.75
  L 69.24 178.75
  A 0.52 0.52 0.0 0 0 69.76 178.23
  L 69.76 159.77
  Z"
/>
</svg>
